<svg xmlns="http://www.w3.org/2000/svg" version="1.1" viewBox="120 30 2173 1304">
<path d="M0 0 C717.09 0 1434.18 0 2173 0 C2173 430.32 2173 860.64 2173 1304 C1455.91 1304 738.82 1304 0 1304 C0 873.68 0 443.36 0 0 Z " fill="#CD202C" transform="translate(120,30)"/>
<path d="M0 0 C315.48 0 630.96 0 956 0 C956 172.26 956 344.52 956 522 C640.52 522 325.04 522 0 522 C0 349.74 0 177.48 0 0 Z " fill="#FEFEFE" transform="translate(1337,812)"/>
<path d="M0 0 C315.48 0 630.96 0 956 0 C956 172.26 956 344.52 956 522 C640.52 522 325.04 522 0 522 C0 349.74 0 177.48 0 0 Z " fill="#FEFEFE" transform="translate(120,812)"/>
<path d="M0 0 C315.48 0 630.96 0 956 0 C956 172.26 956 344.52 956 522 C640.52 522 325.04 522 0 522 C0 349.74 0 177.48 0 0 Z " fill="#FEFEFE" transform="translate(1337,30)"/>
<path d="M0 0 C315.48 0 630.96 0 956 0 C956 172.26 956 344.52 956 522 C640.52 522 325.04 522 0 522 C0 349.74 0 177.48 0 0 Z " fill="#FEFEFE" transform="translate(120,30)"/>
</svg>