<svg id="svg" xmlns="http://www.w3.org/2000/svg" xmlns:xlink="http://www.w3.org/1999/xlink" width="400" height="394.4333996023857" viewBox="0, 0, 400,394.4333996023857"><g id="svgg"><path id="path0" d="M103.380 61.166 C 50.410 68.821,23.812 124.196,44.990 182.729 C 56.834 215.463,82.805 247.675,138.767 299.041 C 147.078 306.669,154.059 313.092,154.282 313.314 C 154.505 313.536,157.547 316.380,161.041 319.635 C 164.536 322.889,174.757 332.799,183.754 341.657 L 200.112 357.762 211.189 346.599 C 221.342 336.368,241.809 316.996,266.004 294.716 C 344.795 222.160,369.798 177.118,360.590 124.318 C 351.737 73.546,302.429 47.510,252.440 67.211 C 236.110 73.647,214.167 87.902,203.621 98.925 C 200.225 102.475,199.775 102.475,196.379 98.925 C 172.521 73.987,131.084 57.163,103.380 61.166 " stroke="none" fill="#000000" fill-rule="evenodd"></path></g></svg>