<?xml version="1.0" encoding="UTF-8"?>
<svg version="1.1" xmlns="http://www.w3.org/2000/svg" width="100" height="100">
<path d="M0 0 C1.05048523 0.00607269 1.05048523 0.00607269 2.12219238 0.01226807 C2.86054321 0.00876343 3.59889404 0.00525879 4.35961914 0.00164795 C6.80661346 -0.00717336 9.25331999 -0.00131891 11.70031738 0.00543213 C13.39660701 0.00408559 15.09289627 0.00214515 16.78918457 -0.00036621 C20.34683908 -0.00331801 23.90439327 0.00098194 27.46203613 0.01031494 C32.02882879 0.02170954 36.59538638 0.01515036 41.16217041 0.00317001 C44.66566752 -0.0040471 48.16910865 -0.00176135 51.67260742 0.0034256 C53.35677111 0.00476251 55.04093984 0.00311293 56.72509766 -0.00153351 C59.07635012 -0.00659634 61.42721861 0.0011078 63.77844238 0.01226807 C64.82892761 0.00619537 64.82892761 0.00619537 65.90063477 0 C70.72178823 0.04252797 70.72178823 0.04252797 72.95031738 2.27105713 C73.17736816 4.33404541 73.17736816 4.33404541 73.14562988 6.84136963 C73.13918457 7.73726807 73.13273926 8.6331665 73.12609863 9.55621338 C73.10096191 10.96193604 73.10096191 10.96193604 73.07531738 12.39605713 C73.06629395 13.34093994 73.05727051 14.28582275 73.04797363 15.25933838 C73.02436261 17.59683005 72.99143254 19.93381836 72.95031738 22.27105713 C70.99328613 21.18511963 70.99328613 21.18511963 68.95031738 19.27105713 C68.37609863 16.16949463 68.37609863 16.16949463 68.26281738 12.64605713 C68.47578685 8.64133682 68.47578685 8.64133682 66.95031738 5.27105713 C64.83893837 5.1715752 62.72419453 5.14306075 60.61047363 5.1416626 C59.9486911 5.13991028 59.28690857 5.13815796 58.60507202 5.13635254 C56.40762749 5.13193496 54.2102628 5.13487166 52.01281738 5.13824463 C50.49206527 5.13757156 48.97131326 5.13660151 47.45056152 5.13534546 C44.25938902 5.13386861 41.06824446 5.13602261 37.8770752 5.14068604 C33.77767208 5.14638332 29.67833443 5.14310425 25.57893372 5.13711357 C22.43749494 5.13350759 19.2960718 5.13464671 16.15463257 5.13724136 C14.64268994 5.13791053 13.13074592 5.13708256 11.61880493 5.13476181 C9.50921851 5.13223468 7.39973951 5.13607669 5.29016113 5.1416626 C4.08738525 5.14245819 2.88460938 5.14325378 1.64538574 5.14407349 C-0.96715447 4.9641812 -0.96715447 4.9641812 -2.04968262 6.27105713 C-2.15016785 9.00456461 -2.18584523 11.71283605 -2.17907715 14.44683838 C-2.18082947 15.30369232 -2.18258179 16.16054626 -2.18438721 17.04336548 C-2.18880679 19.89011632 -2.18586736 22.73680559 -2.18249512 25.58355713 C-2.18316813 27.55271415 -2.18413812 29.52187109 -2.18539429 31.49102783 C-2.1868714 35.62376698 -2.18471626 39.75648455 -2.18005371 43.88922119 C-2.17435642 49.19930234 -2.17763535 54.50933294 -2.18362617 59.81941223 C-2.18723142 63.88731266 -2.18609337 67.95520102 -2.18349838 72.02310181 C-2.18282901 73.98161831 -2.18365789 75.94013588 -2.18597794 77.89865112 C-2.18850386 80.63088913 -2.18466473 83.3630441 -2.17907715 86.09527588 C-2.18110138 86.91297455 -2.18312561 87.73067322 -2.18521118 88.57315063 C-2.51721903 92.22163329 -2.51721903 92.22163329 -1.04968262 95.27105713 C1.06169639 95.37053906 3.17644024 95.39905351 5.29016113 95.40045166 C6.28283493 95.40308014 6.28283493 95.40308014 7.29556274 95.40576172 C9.49300728 95.4101793 11.69037196 95.4072426 13.88781738 95.40386963 C15.40856949 95.4045427 16.9293215 95.40551274 18.45007324 95.4067688 C21.64124575 95.40824564 24.83239031 95.40609165 28.02355957 95.40142822 C32.12296269 95.39573093 36.22230034 95.39901001 40.32170105 95.40500069 C43.46313982 95.40860666 46.60456296 95.40746755 49.7460022 95.40487289 C51.25794482 95.40420373 52.76988884 95.4050317 54.28182983 95.40735245 C56.39141625 95.40987958 58.50089526 95.40603757 60.61047363 95.40045166 C61.81324951 95.39965607 63.01602539 95.39886047 64.25524902 95.39804077 C66.86778923 95.57793306 66.86778923 95.57793306 67.95031738 94.27105713 C68.15477452 90.97248193 68.26990028 87.67575446 68.37609863 84.37261963 C68.95031738 81.27105713 68.95031738 81.27105713 70.99328613 79.35699463 C71.63910645 78.99863525 72.28492676 78.64027588 72.95031738 78.27105713 C73.00822092 81.56265029 73.04387999 84.85411316 73.07531738 88.14605713 C73.0920752 89.08320557 73.10883301 90.020354 73.12609863 90.98590088 C73.13254395 91.88179932 73.13898926 92.77769775 73.14562988 93.70074463 C73.15610352 94.52816162 73.16657715 95.35557861 73.17736816 96.20806885 C72.95031738 98.27105713 72.95031738 98.27105713 70.95031738 100.27105713 C68.52201677 100.46920897 66.20777719 100.5438898 63.77844238 100.52984619 C62.67091614 100.53510315 62.67091614 100.53510315 61.54101562 100.54046631 C59.0940213 100.54928762 56.64731478 100.54343317 54.20031738 100.53668213 C52.50402775 100.53802867 50.8077385 100.5399691 49.1114502 100.54248047 C45.55379569 100.54543227 41.9962415 100.54113232 38.43859863 100.53179932 C33.87180598 100.52040472 29.30524838 100.52696389 24.73846436 100.53894424 C21.23496724 100.54616135 17.73152612 100.54387561 14.22802734 100.53868866 C12.54386365 100.53735175 10.85969492 100.53900133 9.17553711 100.54364777 C6.82428464 100.5487106 4.47341615 100.54100645 2.12219238 100.52984619 C1.4218689 100.53389465 0.72154541 100.53794312 0 100.54211426 C-4.82115346 100.49958628 -4.82115346 100.49958628 -7.04968262 98.27105713 C-7.24861739 95.23841338 -7.32231336 92.29705147 -7.30847168 89.26324463 C-7.31197632 88.32982239 -7.31548096 87.39640015 -7.3190918 86.43469238 C-7.32791964 83.33840576 -7.32205623 80.24234622 -7.31530762 77.14605713 C-7.31665396 75.00136267 -7.31859424 72.85666851 -7.32110596 70.7119751 C-7.32405865 66.2127594 -7.3197549 61.713623 -7.3104248 57.2144165 C-7.29903023 51.43695768 -7.30558892 45.65968466 -7.31756973 39.88223267 C-7.3247844 35.45227652 -7.32250221 31.02236468 -7.31731415 26.59240723 C-7.31597656 24.4616697 -7.31762915 22.3309282 -7.32227325 20.20019531 C-7.32733202 17.22631112 -7.31963738 14.25273107 -7.30847168 11.27886963 C-7.31454437 9.94786224 -7.31454437 9.94786224 -7.32073975 8.58996582 C-7.27515357 2.06186218 -6.80597291 0.06003631 0 0 Z " fill="#000000" transform="translate(7.0496826171875,-0.27105712890625)"/>
<path d="M0 0 C6.54559584 0.65382659 9.97785624 5.30629529 14.40429688 9.77294922 C15.87428137 11.24927827 17.36897952 12.69691849 18.8671875 14.14453125 C19.7953125 15.07136719 20.7234375 15.99820313 21.6796875 16.953125 C22.53288574 17.80036133 23.38608398 18.64759766 24.26513672 19.52050781 C26 22 26 22 26.05224609 24.49560547 C24.00407198 29.3703549 19.93203321 32.73267041 16.22705078 36.40429688 C14.75072173 37.87428137 13.30308151 39.36897952 11.85546875 40.8671875 C10.92863281 41.7953125 10.00179687 42.7234375 9.046875 43.6796875 C8.19963867 44.53288574 7.35240234 45.38608398 6.47949219 46.26513672 C4 48 4 48 1.18457031 47.77001953 C0.10320801 47.38885986 0.10320801 47.38885986 -1 47 C3.01109572 38.97780856 10.6579008 33.3420992 17 27 C-12.205 26.505 -12.205 26.505 -42 26 C-42 24.68 -42 23.36 -42 22 C-22.53 21.67 -3.06 21.34 17 21 C11.39 15.39 5.78 9.78 0 4 C0 2.68 0 1.36 0 0 Z " fill="#000000" transform="translate(74,26)"/>
</svg>
