<svg xmlns="http://www.w3.org/2000/svg" version="1.1" viewBox="0 0 2000 1000">
<path d="M0 0 C660 0 1320 0 2000 0 C2000 330 2000 660 2000 1000 C1340 1000 680 1000 0 1000 C0 670 0 340 0 0 Z " fill="#CC0000" transform="translate(0,0)"/>
<path d="M0 0 C19.95321674 9.82577412 38.00610705 24.66718113 54 40 C54.80268311 40.76183594 54.80268311 40.76183594 55.62158203 41.5390625 C78.69030485 63.53119979 99.15295644 93.84554942 100.203125 126.71484375 C100.55439743 149.82370925 95.79059096 169.23398014 82 188 C81.12347904 189.22193852 80.24870673 190.44513286 79.37548828 191.66943359 C78.92940216 192.29465912 78.48331604 192.91988464 78.02371216 193.5640564 C77.68588715 194.03791779 77.34806213 194.51177917 77 195 C78.38505737 196.3614917 78.38505737 196.3614917 79.7980957 197.75048828 C83.2330079 201.13096075 86.65786789 204.52146631 90.07983398 207.91503906 C91.56019672 209.38034726 93.04324506 210.84294757 94.52905273 212.30273438 C96.6684795 214.40563259 98.79795008 216.5181897 100.92578125 218.6328125 C101.58838455 219.27993195 102.25098785 219.92705139 102.93367004 220.59378052 C106.93592443 224.59457317 110.56118487 228.44740079 111.28515625 234.30859375 C110.65770194 240.30793756 108.63389803 244.0823485 104 248 C100.92652516 249.89926629 98.34683832 250.40321145 94.75 250.5625 C93.41195312 250.65724609 93.41195312 250.65724609 92.046875 250.75390625 C81.74954777 248.20597785 72.08138734 234.00370304 64.90063477 226.50292969 C63.05804311 224.58191475 61.19713805 222.68037795 59.33203125 220.78125 C58.77046829 220.18558228 58.20890533 219.58991455 57.63032532 218.97619629 C55.86484723 217.12971902 55.86484723 217.12971902 53 215 C50.2865576 214.91254111 50.2865576 214.91254111 48 216 C47.09765625 216.34675781 46.1953125 216.69351563 45.265625 217.05078125 C44.27046875 217.46714844 43.2753125 217.88351562 42.25 218.3125 C19.0087619 227.30573499 -4.56386847 227.64758399 -27.54296875 217.58984375 C-38.63912747 212.48686454 -49.55578412 206.00129956 -58 197 C-58.80244141 198.39992188 -58.80244141 198.39992188 -59.62109375 199.828125 C-62.30399341 203.40532455 -63.97174766 204.13954586 -68.0625 205.75 C-76.82840313 210.14277881 -80.17268216 217.59418294 -84.79052734 225.90771484 C-90.42796622 235.66000615 -99.51789124 245.50766767 -110 250 C-114.63228241 250.79410556 -118.59678873 250.52347812 -122.8125 248.375 C-127.02066378 245.23950542 -129.4398043 242.82808476 -130.484375 237.5546875 C-131.08924763 229.38890696 -128.11766345 224.16405855 -123 218 C-113.49426162 207.51891713 -100.63131226 198.31565613 -88 192 C-87.3693877 190.77317243 -86.79337705 189.51787979 -86.25 188.25 C-84.13326573 183.8832556 -82.06010344 181.67966827 -78 179 C-76.00448218 178.64080679 -74.00451121 178.30503431 -72 178 C-71.34 177.29875 -70.68 176.5975 -70 175.875 C-69.34 175.25625 -68.68 174.6375 -68 174 C-65 174.1875 -65 174.1875 -62 175 C-61.21625 175.185625 -60.4325 175.37125 -59.625 175.5625 C-58.820625 175.7790625 -58.820625 175.7790625 -58 176 C-56.35 174.02 -54.7 172.04 -53 170 C-49.98216874 171.64608978 -47.68737354 173.29873195 -45.1875 175.6875 C-31.91564701 187.20700876 -14.27808989 191.28344398 2.8125 191.4375 C3.75488525 191.4478125 4.69727051 191.458125 5.66821289 191.46875 C12.48372568 191.38283265 18.51679851 190.0640878 25 188 C25 185.11198854 23.34384527 184.11142614 21.39700317 182.15927124 C20.86565765 181.63668732 20.33431213 181.11410339 19.78686523 180.57568359 C19.23240219 180.02253479 18.67793915 179.46938599 18.10667419 178.8994751 C16.26185199 177.06117294 14.41016151 175.22994312 12.55859375 173.3984375 C11.27448146 172.12059631 9.99088343 170.84223814 8.70777893 169.56338501 C5.3165272 166.18547285 1.91977553 162.81314985 -1.47857666 159.44238281 C-6.89429146 154.06965366 -12.30353069 148.69042836 -17.7093029 143.3076973 C-19.59176108 141.43538252 -21.47764394 139.56657018 -23.36390686 137.6980896 C-28.63920205 132.4595714 -33.84195751 127.231111 -38.66371155 121.56460571 C-40.34380037 119.59745815 -42.12793891 117.75814904 -43.96484375 115.9375 C-44.61904297 115.28652344 -45.27324219 114.63554687 -45.94726562 113.96484375 C-46.60404297 113.31644531 -47.26082031 112.66804688 -47.9375 112 C-48.62134766 111.32066406 -49.30519531 110.64132812 -50.00976562 109.94140625 C-51.67087159 108.29191641 -53.33428513 106.6448332 -55 105 C-60.99500997 109.96194855 -66.46427037 115.3476624 -71.9375 120.875 C-72.81212891 121.75414062 -73.68675781 122.63328125 -74.58789062 123.5390625 C-76.72757048 125.6904346 -78.86486597 127.84411792 -81 130 C-85.26705487 128.34505714 -88.1371993 125.15086959 -91.296875 121.96875 C-91.89050842 121.37703003 -92.48414185 120.78531006 -93.09576416 120.17565918 C-94.34543718 118.92734419 -95.59259992 117.67651177 -96.83740234 116.42333984 C-98.75007952 114.49992003 -100.67323119 112.58743901 -102.59765625 110.67578125 C-103.81053798 109.46157861 -105.02279952 108.24675607 -106.234375 107.03125 C-106.81241882 106.45725464 -107.39046265 105.88325928 -107.98602295 105.29187012 C-112 101.22993434 -112 101.22993434 -112 99 C-110.70703125 97.73046875 -110.70703125 97.73046875 -108.8125 96.1875 C-104.8302311 92.81353506 -101.16098361 89.21268795 -97.5 85.5 C-93.51285796 81.4664366 -89.48499126 77.6059248 -85.15625 73.9375 C-81.55375789 70.70047811 -78.19688892 67.21630135 -74.79272461 63.77319336 C-71.2193265 60.17474441 -67.58716873 56.72472803 -63.6640625 53.50390625 C-61.94657673 52.05700412 -61.94657673 52.05700412 -60.7109375 50.21484375 C-59.22166745 48.20935433 -58.20365537 47.20989105 -56 46 C-52.96972656 45.90649414 -52.96972656 45.90649414 -49.328125 46.22265625 C-48.67100021 46.27740616 -48.01387543 46.33215607 -47.33683777 46.38856506 C-45.22217185 46.57278191 -43.11141891 46.7818089 -41 47 C-40.31148956 47.07103943 -39.62297913 47.14207886 -38.91360474 47.215271 C-34.74205501 47.65744483 -30.57830852 48.15083324 -26.41625977 48.67456055 C-24.27651192 48.94199799 -22.13547125 49.19675395 -19.99414062 49.45117188 C-18.61709351 49.62163831 -17.24013643 49.792834 -15.86328125 49.96484375 C-14.63907471 50.1155835 -13.41486816 50.26632324 -12.15356445 50.42163086 C-9.35562938 50.93477696 -7.42223502 51.55795146 -5 53 C-5.78503906 53.7734375 -6.57007813 54.546875 -7.37890625 55.34375 C-14.19615415 62.05076719 -14.19615415 62.05076719 -20.625 69.125 C-24.79294337 74.00303743 -29.21067632 78.72725785 -34 83 C-34.66 83 -35.32 83 -36 83 C-32.22233341 87.64227338 -28.19352302 91.80886953 -23.73071289 95.79833984 C-16.65827039 102.20292712 -9.94724385 108.95303378 -3.22961235 115.72578812 C-1.00853936 117.96451474 1.21628454 120.19945346 3.44212341 122.43344116 C9.76012312 128.77568898 16.07216684 135.12384155 22.38012695 141.47607422 C26.26062016 145.3832854 30.14592017 149.28566237 34.03425407 153.18507004 C35.51017251 154.66719913 36.98419037 156.15122335 38.45627022 157.63716507 C40.50223555 159.70226215 42.55420959 161.76120328 44.60766602 163.81884766 C45.21387787 164.43382111 45.82008972 165.04879456 46.44467163 165.68240356 C49.77595596 169.01855785 49.77595596 169.01855785 54 171 C54.25910156 170.47535156 54.51820313 169.95070313 54.78515625 169.41015625 C55.71046502 167.57441506 56.6602936 165.7510109 57.62109375 163.93359375 C58.22050781 162.77988281 58.81992187 161.62617188 59.4375 160.4375 C60.03433594 159.30183594 60.63117188 158.16617188 61.24609375 156.99609375 C69.99710427 138.30294953 67.73081217 114.98928964 61 96 C51.15557624 69.14832733 35.778495 45.24545355 18 23 C17.24074219 22.04738281 16.48148438 21.09476563 15.69921875 20.11328125 C11.20804733 14.55167519 6.53758369 9.21536719 1.65234375 3.99609375 C0 2 0 2 0 0 Z " fill="#FED400" transform="translate(333,185)"/>
<path d="M0 0 C2.87312118 2.87312118 3.61037899 6.39493477 4.8203125 10.18359375 C5.08383514 10.9949025 5.34735779 11.80621124 5.61886597 12.6421051 C6.17480084 14.35851509 6.72771188 16.07590698 7.27783203 17.79418945 C8.12130581 20.42597348 8.97590804 23.05394789 9.83203125 25.68164062 C10.37045985 27.34874268 10.90824201 29.01605368 11.4453125 30.68359375 C11.70152374 31.47116562 11.95773499 32.25873749 12.22171021 33.07017517 C13.20278537 36.1506413 14 38.74611662 14 42 C28.85 42 43.7 42 59 42 C55.30945695 45.69054305 51.9142923 48.64984925 47.6875 51.5625 C42.09065847 55.48560493 36.58492008 59.5133896 31.125 63.625 C30.06285278 64.42466187 30.06285278 64.42466187 28.97924805 65.24047852 C27.31851693 66.492351 25.65910594 67.74597447 24 69 C24.681874 71.39755697 25.36933539 73.79319613 26.0625 76.1875 C26.38661865 77.30838013 26.38661865 77.30838013 26.71728516 78.4519043 C28.02246765 82.89270814 29.41839974 87.28750458 30.92578125 91.6640625 C31.41002563 93.07328979 31.41002563 93.07328979 31.90405273 94.51098633 C32.54411497 96.35778396 33.19317303 98.20149183 33.85180664 100.04174805 C34.14563232 100.890354 34.43945801 101.73895996 34.7421875 102.61328125 C35.14219971 103.73923706 35.14219971 103.73923706 35.55029297 104.88793945 C36.0585312 107.27489326 35.76828 108.70845093 35 111 C34.49774902 110.6282666 33.99549805 110.2565332 33.47802734 109.87353516 C29.37145614 106.83596425 25.25968492 103.80577468 21.140625 100.78515625 C18.00574675 98.48512234 14.8899551 96.16447473 11.796875 93.80859375 C10.57306961 92.89302469 9.34912163 91.97764619 8.125 91.0625 C7.57376465 90.63211426 7.0225293 90.20172852 6.45458984 89.75830078 C4.04310182 87.9775903 2.63421368 86.94162184 -0.41625977 87.22241211 C-3.19503379 88.05869627 -4.91465825 89.09967902 -7.22265625 90.84375 C-8.00342529 91.42688965 -8.78419434 92.0100293 -9.58862305 92.61083984 C-10.40500244 93.2342627 -11.22138184 93.85768555 -12.0625 94.5 C-12.90143799 95.12986816 -13.74037598 95.75973633 -14.60473633 96.40869141 C-16.28844422 97.67401752 -17.9694013 98.94301306 -19.64746094 100.21582031 C-22.2946883 102.22349336 -24.95476079 104.21340889 -27.61694336 106.20117188 C-29.74915657 107.79478001 -31.87504085 109.39673741 -34 111 C-34.66 110.67 -35.32 110.34 -36 110 C-35.63648438 108.86981445 -35.27296875 107.73962891 -34.8984375 106.57519531 C-33.55080405 102.38011001 -32.21078419 98.18262543 -30.87304688 93.984375 C-30.29309026 92.16795608 -29.71107314 90.35219372 -29.12695312 88.53710938 C-28.28753286 85.92748312 -27.45555993 83.31558267 -26.625 80.703125 C-26.23127197 79.48728729 -26.23127197 79.48728729 -25.82958984 78.24688721 C-25.58934082 77.48640076 -25.3490918 76.72591431 -25.1015625 75.94238281 C-24.88838379 75.27619934 -24.67520508 74.61001587 -24.45556641 73.92364502 C-23.84636651 71.68075289 -23.84636651 71.68075289 -24 68 C-25.90986491 66.33626776 -27.70832566 65.00358713 -29.8125 63.625 C-31.08457309 62.75441289 -32.35533112 61.88190219 -33.625 61.0078125 C-34.66720703 60.2967334 -34.66720703 60.2967334 -35.73046875 59.57128906 C-39.98244611 56.62747169 -44.14472857 53.56127995 -48.3125 50.5 C-49.15466064 49.88850098 -49.99682129 49.27700195 -50.86450195 48.64697266 C-51.64784912 48.07253418 -52.43119629 47.4980957 -53.23828125 46.90625 C-53.93993408 46.39384766 -54.64158691 45.88144531 -55.36450195 45.35351562 C-57 44 -57 44 -58 42 C-43.15 42 -28.3 42 -13 42 C-12.67 39.69 -12.34 37.38 -12 35 C-11.47460849 33.20680895 -10.89497902 31.42845953 -10.2578125 29.671875 C-9.91363281 28.70636719 -9.56945312 27.74085937 -9.21484375 26.74609375 C-8.67537109 25.26302734 -8.67537109 25.26302734 -8.125 23.75 C-5.65498892 16.91901698 -3.39937099 10.13464825 -1.60888672 3.09082031 C-1 1 -1 1 0 0 Z " fill="#FCCE00" transform="translate(333,60)"/>
<path d="M0 0 C2.17142404 2.17142404 2.60299758 3.36732977 3.5078125 6.24609375 C3.90419922 7.50196289 3.90419922 7.50196289 4.30859375 8.78320312 C4.57800781 9.65912109 4.84742188 10.53503906 5.125 11.4375 C5.40214844 12.30955078 5.67929687 13.18160156 5.96484375 14.08007812 C8 20.60160099 8 20.60160099 8 24 C16.25 24 24.5 24 33 24 C30.4221176 26.5778824 28.42287264 28.55427481 25.546875 30.578125 C24.928125 31.01640625 24.309375 31.4546875 23.671875 31.90625 C22.72054687 32.57140625 22.72054687 32.57140625 21.75 33.25 C20.77546875 33.93835938 20.77546875 33.93835938 19.78125 34.640625 C18.18995001 35.76389558 16.59530905 36.88243056 15 38 C15.6643774 43.96394597 17.29511105 49.13524866 19.359375 54.74609375 C21.10379464 59.68861607 21.10379464 59.68861607 20 63 C19.14277344 62.32453125 18.28554688 61.6490625 17.40234375 60.953125 C16.24758065 60.05184648 15.09262222 59.1508182 13.9375 58.25 C13.09541992 57.58484375 13.09541992 57.58484375 12.23632812 56.90625 C8.32950319 53.87008891 4.3450762 51.36903518 0 49 C-0.49927002 49.35827881 -0.99854004 49.71655762 -1.51293945 50.08569336 C-3.77669125 51.70686909 -6.04452781 53.32223444 -8.3125 54.9375 C-9.49102539 55.78344727 -9.49102539 55.78344727 -10.69335938 56.64648438 C-11.8293457 57.45375977 -11.8293457 57.45375977 -12.98828125 58.27734375 C-13.68477783 58.77484131 -14.38127441 59.27233887 -15.09887695 59.78491211 C-17 61 -17 61 -20 62 C-18.73181566 55.65907828 -16.96287487 49.69804798 -14.8046875 43.6015625 C-13.85225164 40.97618962 -13.85225164 40.97618962 -14 38 C-15.686178 36.38144569 -15.686178 36.38144569 -17.9375 34.8984375 C-19.15566406 34.03992188 -19.15566406 34.03992188 -20.3984375 33.1640625 C-21.25695312 32.57367188 -22.11546875 31.98328125 -23 31.375 C-24.68938384 30.19801186 -26.37699159 29.01846879 -28.0625 27.8359375 C-28.81660156 27.31563965 -29.57070313 26.7953418 -30.34765625 26.25927734 C-30.89292969 25.84371582 -31.43820312 25.4281543 -32 25 C-32 24.67 -32 24.34 -32 24 C-24.08 23.67 -16.16 23.34 -8 23 C-5.73794452 15.8058719 -5.73794452 15.8058719 -3.48266602 8.60961914 C-3.20092529 7.71879639 -2.91918457 6.82797363 -2.62890625 5.91015625 C-2.34088135 4.99371338 -2.05285645 4.07727051 -1.75610352 3.13305664 C-1 1 -1 1 0 0 Z " fill="#CD0400" transform="translate(333,87)"/>
</svg>